<mxfile host="Electron" modified="2024-05-31T08:42:08.914Z" agent="Mozilla/5.0 (Windows NT 10.0; Win64; x64) AppleWebKit/537.36 (KHTML, like Gecko) draw.io/21.2.8 Chrome/112.0.5615.165 Electron/24.2.0 Safari/537.36" etag="3Bmp1fUCCCW3CdvqZbfi" version="21.2.8" type="device">
  <diagram name="第 1 页" id="4vGoqL806USBXNcvkwfP">
    <mxGraphModel dx="1221" dy="823" grid="0" gridSize="10" guides="1" tooltips="1" connect="1" arrows="1" fold="1" page="1" pageScale="1" pageWidth="827" pageHeight="1169" math="0" shadow="0">
      <root>
        <mxCell id="0" />
        <mxCell id="1" parent="0" />
        <mxCell id="oqy_v3ipm6J-qQmxSKlp-2" value="&lt;b&gt;&lt;font style=&quot;font-size: 24px;&quot;&gt;用户登录&lt;/font&gt;&lt;/b&gt;" style="text;html=1;align=center;verticalAlign=middle;whiteSpace=wrap;rounded=0;fontColor=#3333FF;" vertex="1" parent="1">
          <mxGeometry x="344" y="98" width="134" height="42" as="geometry" />
        </mxCell>
        <mxCell id="oqy_v3ipm6J-qQmxSKlp-3" value="&lt;b&gt;&lt;font style=&quot;font-size: 15px;&quot;&gt;身份证号&lt;/font&gt;&lt;/b&gt;" style="text;html=1;strokeColor=none;fillColor=none;align=center;verticalAlign=middle;whiteSpace=wrap;rounded=0;" vertex="1" parent="1">
          <mxGeometry x="199" y="173" width="74" height="30" as="geometry" />
        </mxCell>
        <mxCell id="oqy_v3ipm6J-qQmxSKlp-4" value="" style="rounded=1;whiteSpace=wrap;html=1;" vertex="1" parent="1">
          <mxGeometry x="205" y="212" width="411" height="41" as="geometry" />
        </mxCell>
        <mxCell id="oqy_v3ipm6J-qQmxSKlp-5" value="&lt;b&gt;&lt;font style=&quot;font-size: 15px;&quot;&gt;密码&lt;/font&gt;&lt;/b&gt;" style="text;html=1;strokeColor=none;fillColor=none;align=center;verticalAlign=middle;whiteSpace=wrap;rounded=0;" vertex="1" parent="1">
          <mxGeometry x="193" y="268" width="60" height="30" as="geometry" />
        </mxCell>
        <mxCell id="oqy_v3ipm6J-qQmxSKlp-6" value="" style="rounded=1;whiteSpace=wrap;html=1;" vertex="1" parent="1">
          <mxGeometry x="205" y="310" width="411" height="43" as="geometry" />
        </mxCell>
        <mxCell id="oqy_v3ipm6J-qQmxSKlp-7" value="&lt;b&gt;&lt;font style=&quot;font-size: 15px;&quot;&gt;验证码&lt;/font&gt;&lt;/b&gt;" style="text;html=1;strokeColor=none;fillColor=none;align=center;verticalAlign=middle;whiteSpace=wrap;rounded=0;" vertex="1" parent="1">
          <mxGeometry x="201" y="373" width="60" height="30" as="geometry" />
        </mxCell>
        <mxCell id="oqy_v3ipm6J-qQmxSKlp-8" value="" style="rounded=1;whiteSpace=wrap;html=1;" vertex="1" parent="1">
          <mxGeometry x="205" y="411" width="172" height="47" as="geometry" />
        </mxCell>
        <mxCell id="oqy_v3ipm6J-qQmxSKlp-9" value="验证码图片" style="rounded=0;whiteSpace=wrap;html=1;" vertex="1" parent="1">
          <mxGeometry x="469" y="403" width="147" height="55" as="geometry" />
        </mxCell>
        <mxCell id="oqy_v3ipm6J-qQmxSKlp-10" value="&lt;b&gt;&lt;font style=&quot;font-size: 15px;&quot;&gt;注册&lt;/font&gt;&lt;/b&gt;" style="rounded=1;whiteSpace=wrap;html=1;fillColor=#1ba1e2;strokeColor=#006EAF;fontColor=#ffffff;" vertex="1" parent="1">
          <mxGeometry x="205" y="498" width="413" height="42" as="geometry" />
        </mxCell>
        <mxCell id="oqy_v3ipm6J-qQmxSKlp-11" value="&lt;span style=&quot;font-size: 15px;&quot;&gt;没有账户？&lt;font style=&quot;&quot; color=&quot;#007fff&quot;&gt;注册&lt;/font&gt;&lt;/span&gt;" style="text;html=1;align=center;verticalAlign=middle;resizable=0;points=[];autosize=1;strokeColor=none;fillColor=none;" vertex="1" parent="1">
          <mxGeometry x="346" y="567" width="123" height="30" as="geometry" />
        </mxCell>
      </root>
    </mxGraphModel>
  </diagram>
</mxfile>
